<svg width="147" height="43" viewBox="0 0 147 43" fill="none" xmlns="http://www.w3.org/2000/svg">
<g clip-path="url(#clip0_139_7)">
<path d="M7.691 27.512H7.548C7.58307 28.5212 7.41318 29.5271 7.04861 30.4688C6.68403 31.4104 6.13234 32.2685 5.42685 32.991C4.72137 33.7135 3.87674 34.2854 2.94399 34.6723C2.01125 35.0592 1.00975 35.253 0 35.242V35.392C1.00054 35.3634 1.99636 35.5398 2.92618 35.9104C3.856 36.281 4.70016 36.8379 5.40672 37.5469C6.11329 38.2559 6.6673 39.102 7.03469 40.0331C7.40208 40.9642 7.57506 41.9606 7.543 42.961H7.686C7.65407 41.9601 7.82729 40.9631 8.19501 40.0316C8.56272 39.1001 9.11714 38.2536 9.82417 37.5444C10.5312 36.8351 11.3759 36.278 12.3062 35.9073C13.2366 35.5367 14.2329 35.3603 15.234 35.389V35.242C14.2248 35.2529 13.2238 35.0591 12.2916 34.6723C11.3594 34.2854 10.5153 33.7136 9.81026 32.9914C9.10524 32.2692 8.55395 31.4116 8.1897 30.4703C7.82545 29.529 7.6558 28.5237 7.691 27.515" fill="#A57B1B"/>
<path d="M16.8928 16.088H12.4148V0.688022H15.7228C16.5801 0.690122 17.4353 0.773833 18.2768 0.938022C19.1758 1.13375 20.0374 1.47274 20.8288 1.94202C22.7828 3.07002 23.9638 5.50402 23.9638 8.35802C24.0194 9.44669 23.8467 10.535 23.4568 11.5529C23.0669 12.5709 22.4684 13.4961 21.6998 14.269C21.0803 14.9717 20.2729 15.4827 19.3728 15.742C18.5679 15.9799 17.732 16.0965 16.8928 16.088ZM29.0118 21.615C28.4086 20.5434 27.5873 19.6103 26.6008 18.876C25.5963 18.1277 24.4785 17.545 23.2898 17.15C22.1331 16.7491 20.9313 16.4928 19.7118 16.387V16.287C20.8333 16.1616 21.9316 15.8795 22.9748 15.449C23.9759 15.0424 24.9045 14.4764 25.7248 13.773C26.5094 13.0979 27.1547 12.2762 27.6248 11.354C28.0971 10.4206 28.3398 9.38805 28.3328 8.34202C28.3134 7.4419 28.1489 6.55079 27.8458 5.70302C27.4776 4.66432 26.8595 3.73223 26.0458 2.98902C25.0002 2.04788 23.7759 1.32689 22.4458 0.869022C20.5669 0.230086 18.5884 -0.0656232 16.6048 -0.00397835C16.1528 -0.00397835 7.55078 0.0210216 7.55078 0.0210216V22.872H7.69378C7.67318 21.4977 8.11323 20.1561 8.94378 19.061C9.54774 18.3662 10.2897 17.8047 11.1224 17.4122C11.9552 17.0196 12.8605 16.8047 13.7808 16.781H17.7718C17.7718 16.781 20.8618 16.866 22.6178 18.587C26.0328 21.949 25.3098 27.856 24.4388 30.121C23.5678 32.386 22.0048 35.242 18.0438 35.242V35.392C19.4721 35.4178 20.8969 35.2414 22.2758 34.868C23.8667 34.428 25.3495 33.6637 26.6308 32.623C27.7002 31.7753 28.552 30.6848 29.1158 29.442C29.677 28.1594 29.9586 26.772 29.9418 25.372C29.9665 24.062 29.6476 22.7684 29.0168 21.62" fill="#A57B1B"/>
<path d="M45.2168 11.118H50.4058C53.3628 11.118 54.8828 12.574 54.8828 14.986C54.8941 15.4849 54.8037 15.9809 54.6169 16.4438C54.4302 16.9066 54.1512 17.3266 53.7968 17.678C54.4817 17.8497 55.0882 18.2482 55.5178 18.8085C55.9474 19.3688 56.1747 20.058 56.1628 20.764C56.1628 22.936 54.8378 24.674 51.4728 24.674H45.2168V11.118ZM47.4748 13.313V16.875H51.7338C52.0078 16.6666 52.2291 16.3968 52.3799 16.0873C52.5306 15.7778 52.6066 15.4372 52.6018 15.093C52.6018 13.507 51.3848 13.313 50.2558 13.313H47.4748ZM47.4748 19.026V22.479H51.2308C53.1668 22.479 53.8818 21.807 53.8818 20.764C53.8818 19.416 52.8178 19.026 51.0158 19.026H47.4748Z" fill="white"/>
<path d="M67.4372 22.197H60.7902L59.6222 24.674H57.0762L64.0272 10.792H64.2882L71.2402 24.674H68.6122L67.4372 22.197ZM64.1152 15.116L61.7692 20.116H66.4622L64.1152 15.116Z" fill="white"/>
<path d="M79.2792 20.286H76.0412V24.674H73.7832V11.118H78.7342C82.3402 11.118 84.0572 12.943 84.0572 15.702C84.1014 16.5588 83.8973 17.4101 83.4694 18.1537C83.0415 18.8973 82.4081 19.5016 81.6452 19.894L85.6452 24.674H82.7972L79.2792 20.286ZM76.0412 13.313V18.091H80.2772C80.7134 17.864 81.0782 17.5206 81.3312 17.0989C81.5841 16.6772 81.7153 16.1937 81.7102 15.702C81.7102 13.985 80.7342 13.313 78.7102 13.313H76.0412Z" fill="white"/>
<path d="M93.6835 20.286H90.4465V24.674H88.1875V11.118H93.1385C96.7455 11.118 98.4615 12.943 98.4615 15.702C98.5057 16.5588 98.3016 17.4101 97.8737 18.1537C97.4459 18.8973 96.8124 19.5016 96.0495 19.894L100.049 24.674H97.2015L93.6835 20.286ZM90.4465 13.313V18.091H94.6825C95.1187 17.864 95.4835 17.5206 95.7365 17.0989C95.9894 16.6772 96.1206 16.1937 96.1155 15.702C96.1155 13.985 95.1395 13.313 93.1155 13.313H90.4465Z" fill="white"/>
<path d="M102.592 11.118H104.85V24.674H102.592V11.118Z" fill="white"/>
<path d="M118.948 13.313V11.119H115.4L114.723 9.35498H112.53L113.403 11.119H109.131V24.674H118.948V22.479H111.39V18.852H118.733V16.659H111.39V13.313H118.948Z" fill="white"/>
<path d="M128.292 20.286H125.055V24.674H122.797V11.118H127.747C131.354 11.118 133.07 12.943 133.07 15.702C133.114 16.5587 132.91 17.4099 132.482 18.1535C132.055 18.8971 131.422 19.5014 130.659 19.894L134.659 24.674H131.814L128.292 20.286ZM125.055 13.313V18.091H129.291C129.727 17.864 130.092 17.5206 130.345 17.0989C130.598 16.6772 130.729 16.1937 130.724 15.702C130.724 13.985 129.748 13.313 127.724 13.313H125.055Z" fill="white"/>
<path d="M147.014 22.479V24.679H137.197V11.118H147.014V13.313H139.455V16.658H146.798V18.852H139.455V22.479H147.014Z" fill="white"/>
<path d="M48.9236 1.07103C48.5933 1.03643 48.2593 1.07356 47.9446 1.17987C47.6299 1.28618 47.3418 1.45917 47.1001 1.68703C46.8584 1.91488 46.6687 2.19223 46.544 2.50012C46.4194 2.80801 46.3626 3.13919 46.3776 3.47103C46.3614 3.80219 46.4171 4.13295 46.5406 4.44062C46.6642 4.74829 46.8529 5.0256 47.0936 5.25356C47.3344 5.48151 47.6216 5.65471 47.9356 5.76129C48.2496 5.86786 48.5829 5.9053 48.9126 5.87103C49.7435 5.87341 50.5439 5.55867 51.1506 4.99103L51.3626 6.11503C50.6395 6.67709 49.7431 6.96953 48.8276 6.94203C48.3573 6.97545 47.8851 6.90974 47.4418 6.74913C46.9984 6.58853 46.5938 6.33662 46.2539 6.00971C45.9141 5.68279 45.6467 5.28817 45.4691 4.85136C45.2914 4.41456 45.2075 3.94533 45.2226 3.47403C45.2066 3.00259 45.2899 2.53305 45.4669 2.09583C45.6439 1.6586 45.9108 1.26343 46.2503 0.935927C46.5898 0.60842 46.9943 0.355876 47.4376 0.194652C47.8809 0.0334287 48.3531 -0.0328785 48.8236 2.5657e-05C49.7391 -0.0274813 50.6355 0.26496 51.3586 0.827026L51.1466 1.95103C50.5441 1.38632 49.7494 1.07175 48.9236 1.07103Z" fill="white"/>
<path d="M57.267 5.568H54.023L53.45 6.777H52.207L55.601 0H55.729L59.123 6.777H57.839L57.267 5.568ZM55.643 2.11L54.499 4.55H56.789L55.643 2.11Z" fill="white"/>
<path d="M65.2127 4.98498C65.2127 6.06698 64.2577 6.93598 62.5927 6.93598C62.0028 6.98142 61.4133 6.84219 60.906 6.53758C60.3988 6.23297 59.9988 5.77808 59.7617 5.23598L60.5617 4.39798C60.6586 4.85688 60.9168 5.26584 61.2894 5.55061C61.6621 5.83538 62.1245 5.97707 62.5927 5.94998C63.7487 5.94998 64.1307 5.48298 64.1307 4.98498C64.1307 3.55298 60.4827 4.00898 60.4827 1.77098C60.495 1.51252 60.5606 1.25939 60.6755 1.02754C60.7904 0.79568 60.952 0.590109 61.1502 0.423759C61.3484 0.257408 61.5789 0.13388 61.8271 0.0609473C62.0754 -0.0119856 62.336 -0.0327443 62.5927 -2.26907e-05C63.0025 -0.0200859 63.4093 0.0795807 63.7633 0.286812C64.1174 0.494043 64.4035 0.799875 64.5867 1.16698L63.9187 2.01498C63.8493 1.71738 63.6796 1.4527 63.4382 1.26535C63.1968 1.078 62.8982 0.979359 62.5927 0.985977C61.9037 0.985977 61.5927 1.33598 61.5927 1.77098C61.5957 3.10698 65.2127 2.65098 65.2127 4.98498Z" fill="white"/>
<path d="M66.5938 0.158997H67.6937V6.777H66.5938V0.158997Z" fill="white"/>
<path d="M76.0743 6.88298L70.9223 2.34198V6.77698H69.8223V0.0529785H69.9493L75.0983 4.58198V0.158978H76.1983V6.88298H76.0743Z" fill="white"/>
<path d="M77.9023 3.46798C77.9243 2.54316 78.3071 1.66361 78.969 1.01729C79.6309 0.370974 80.5193 0.00915527 81.4443 0.00915527C82.3694 0.00915527 83.2578 0.370974 83.9197 1.01729C84.5815 1.66361 84.9644 2.54316 84.9863 3.46798C84.9644 4.39281 84.5815 5.27236 83.9197 5.91867C83.2578 6.56499 82.3694 6.92681 81.4443 6.92681C80.5193 6.92681 79.6309 6.56499 78.969 5.91867C78.3071 5.27236 77.9243 4.39281 77.9023 3.46798ZM79.0473 3.46798C79.0311 3.79285 79.081 4.11763 79.1942 4.4226C79.3073 4.72757 79.4812 5.00636 79.7054 5.24204C79.9296 5.47773 80.1993 5.66538 80.4983 5.7936C80.7972 5.92182 81.1191 5.98795 81.4443 5.98795C81.7696 5.98795 82.0915 5.92182 82.3904 5.7936C82.6894 5.66538 82.9591 5.47773 83.1833 5.24204C83.4075 5.00636 83.5814 4.72757 83.6945 4.4226C83.8076 4.11763 83.8576 3.79285 83.8413 3.46798C83.8576 3.14312 83.8076 2.81833 83.6945 2.51336C83.5814 2.20839 83.4075 1.9296 83.1833 1.69392C82.9591 1.45824 82.6894 1.27059 82.3904 1.14236C82.0915 1.01414 81.7696 0.94802 81.4443 0.94802C81.1191 0.94802 80.7972 1.01414 80.4983 1.14236C80.1993 1.27059 79.9296 1.45824 79.7054 1.69392C79.4812 1.9296 79.3073 2.20839 79.1942 2.51336C79.081 2.81833 79.0311 3.14312 79.0473 3.46798Z" fill="white"/>
<path d="M49.4349 34.254V35.164H45.5469V29.542H46.4829V34.25L49.4349 34.254Z" fill="white"/>
<path d="M54.3575 34.137H51.6025L51.1165 35.164H50.0625L52.9435 29.411H53.0525L55.9325 35.164H54.8445L54.3575 34.137ZM52.9795 31.203L52.0085 33.273H53.9525L52.9795 31.203Z" fill="white"/>
<path d="M61.4489 33.342H60.1079V35.161H59.1719V29.542H61.2229C62.7179 29.542 63.4289 30.298 63.4289 31.442C63.447 31.7971 63.3624 32.1498 63.185 32.4579C63.0076 32.766 62.7451 33.0164 62.4289 33.179L64.0849 35.16H62.9079L61.4489 33.342ZM60.1079 30.453V32.433H61.8629C62.0441 32.3394 62.1957 32.1972 62.3008 32.0224C62.4058 31.8475 62.4602 31.6469 62.4579 31.443C62.4579 30.731 62.0579 30.453 61.2159 30.453H60.1079Z" fill="white"/>
<path d="M64.5353 32.355C64.5224 31.7574 64.6878 31.1695 65.0104 30.6664C65.333 30.1632 65.7983 29.7676 66.3467 29.5299C66.8951 29.2923 67.5019 29.2234 68.0897 29.3321C68.6774 29.4408 69.2194 29.7222 69.6466 30.1403C70.0738 30.5583 70.3667 31.0942 70.488 31.6794C70.6093 32.2647 70.5535 32.8729 70.3277 33.4263C70.102 33.9797 69.7164 34.4533 69.2203 34.7867C68.7242 35.12 68.14 35.298 67.5423 35.298C67.1452 35.328 66.7463 35.273 66.3722 35.1366C65.9981 35.0002 65.6574 34.7856 65.3728 34.507C65.0882 34.2285 64.8663 33.8925 64.7219 33.5214C64.5774 33.1503 64.5139 32.7526 64.5353 32.355ZM65.5083 32.355C65.5136 32.7563 65.6375 33.1471 65.8644 33.4782C66.0913 33.8093 66.411 34.0659 66.7833 34.2158C67.1557 34.3657 67.564 34.4021 67.957 34.3205C68.35 34.2388 68.71 34.0428 68.9919 33.7571C69.2738 33.4713 69.4648 33.1086 69.5411 32.7146C69.6173 32.3205 69.5753 31.9127 69.4204 31.5424C69.2655 31.1722 69.0045 30.856 68.6703 30.6337C68.3362 30.4114 67.9437 30.2928 67.5423 30.293C67.2686 30.2767 66.9945 30.3191 66.7385 30.4174C66.4824 30.5157 66.2503 30.6675 66.0577 30.8628C65.8652 31.058 65.7165 31.2921 65.6217 31.5495C65.527 31.8068 65.4883 32.0815 65.5083 32.355Z" fill="white"/>
<path d="M74.7674 30.32C74.4903 30.3032 74.2126 30.3432 73.9514 30.4376C73.6903 30.532 73.4512 30.6787 73.2488 30.8688C73.0464 31.059 72.885 31.2884 72.7745 31.5432C72.6639 31.7979 72.6067 32.0726 72.6061 32.3503C72.6056 32.6279 72.6618 32.9028 72.7713 33.158C72.8808 33.4132 73.0413 33.6433 73.2429 33.8342C73.4446 34.0251 73.6831 34.1728 73.9439 34.2682C74.2047 34.3636 74.4822 34.4047 74.7594 34.389C75.4648 34.3913 76.1445 34.1241 76.6594 33.642L76.8404 34.596C76.2262 35.0723 75.4653 35.3198 74.6884 35.296C74.2917 35.3123 73.8957 35.2483 73.5243 35.1078C73.1529 34.9672 72.8138 34.753 72.5273 34.4781C72.2408 34.2032 72.0128 33.8731 71.8571 33.5079C71.7014 33.1426 71.6211 32.7496 71.6211 32.3525C71.6211 31.9554 71.7014 31.5624 71.8571 31.1971C72.0128 30.8319 72.2408 30.5018 72.5273 30.2269C72.8138 29.9519 73.1529 29.7378 73.5243 29.5972C73.8957 29.4567 74.2917 29.3926 74.6884 29.409C75.4653 29.3852 76.2262 29.6327 76.8404 30.109L76.6594 31.063C76.1461 30.5838 75.4696 30.3182 74.7674 30.32Z" fill="white"/>
<path d="M82.5365 29.542H83.4725V35.16H82.5365V32.63H79.1225V35.16H78.1855V29.542H79.1225V31.72H82.5345L82.5365 29.542Z" fill="white"/>
<path d="M89.3415 34.254V35.164H85.2715V29.542H89.3415V30.452H86.2085V31.842H89.2515V32.751H86.2085V34.251L89.3415 34.254Z" fill="white"/>
<path d="M94.848 34.254V35.164H90.959V29.542H91.895V34.25L94.848 34.254Z" fill="white"/>
<path d="M100.086 34.254V35.164H96.1973V29.542H97.1343V34.25L100.086 34.254Z" fill="white"/>
<path d="M105.504 34.254V35.164H101.434V29.542H105.504V30.452H102.371V31.842H105.414V32.751H102.371V34.251L105.504 34.254Z" fill="white"/>
</g>
<defs>
<clipPath id="clip0_139_7">
<rect width="147" height="43" fill="white"/>
</clipPath>
</defs>
</svg>
