<svg width="170" height="50" viewBox="0 0 170 50" fill="none" xmlns="http://www.w3.org/2000/svg">
<g clip-path="url(#clip0_129_13)">
<path d="M8.89435 31.8165H8.72898C8.76953 32.9836 8.57307 34.1468 8.15145 35.2359C7.72984 36.3249 7.09182 37.3172 6.27595 38.1527C5.46009 38.9883 4.4833 39.6497 3.40462 40.0972C2.32593 40.5446 1.16773 40.7687 0 40.756V40.9295C1.15709 40.8964 2.30871 41.1004 3.38402 41.5289C4.45932 41.9575 5.43556 42.6016 6.25268 43.4215C7.06979 44.2414 7.71049 45.2199 8.13536 46.2967C8.56022 47.3734 8.76027 48.5257 8.7232 49.6827H8.88857C8.85165 48.5251 9.05197 47.3722 9.47722 46.295C9.90246 45.2177 10.5436 44.2388 11.3613 43.4186C12.1789 42.5983 13.1558 41.954 14.2317 41.5254C15.3076 41.0967 16.4599 40.8927 17.6176 40.926V40.756C16.4504 40.7686 15.2929 40.5444 14.2148 40.0971C13.1367 39.6497 12.1605 38.9885 11.3452 38.1532C10.5299 37.318 9.89232 36.3262 9.47108 35.2377C9.04984 34.1491 8.85364 32.9865 8.89435 31.82" fill="#A57B1B"/>
<path d="M19.5361 18.6052H14.3575V0.795651H18.183C19.1745 0.79808 20.1635 0.894889 21.1366 1.08477C22.1763 1.31112 23.1728 1.70315 24.0879 2.24585C26.3477 3.55034 27.7134 6.36517 27.7134 9.66572C27.7778 10.9247 27.5781 12.1833 27.1272 13.3605C26.6763 14.5378 25.9841 15.6077 25.0952 16.5016C24.3788 17.3141 23.4451 17.9052 22.4041 18.205C21.4733 18.4802 20.5067 18.615 19.5361 18.6052ZM33.5513 24.9969C32.8537 23.7576 31.9039 22.6785 30.763 21.8294C29.6014 20.9639 28.3087 20.2901 26.934 19.8333C25.5964 19.3697 24.2065 19.0733 22.7962 18.951V18.8353C24.0931 18.6902 25.3633 18.364 26.5697 17.8662C27.7274 17.3959 28.8014 16.7414 29.75 15.928C30.6573 15.1472 31.4037 14.197 31.9473 13.1305C32.4934 12.0511 32.7741 10.8569 32.766 9.64721C32.7436 8.60625 32.5534 7.57572 32.2028 6.59531C31.7771 5.3941 31.0622 4.31616 30.1212 3.45667C28.9121 2.36828 27.4962 1.53448 25.9579 1.00497C23.7851 0.266066 21.497 -0.0759111 19.203 -0.00462116C18.6803 -0.00462116 8.73242 0.0242904 8.73242 0.0242904V26.4506H8.8978C8.87398 24.8613 9.38287 23.3098 10.3434 22.0433C11.0418 21.2398 11.8999 20.5904 12.8629 20.1365C13.8259 19.6825 14.8729 19.434 15.9372 19.4066H20.5526C20.5526 19.4066 24.1261 19.5049 26.1568 21.4952C30.1062 25.3832 29.27 32.2144 28.2628 34.8338C27.2555 37.4532 25.4479 40.7561 20.8672 40.7561V40.9295C22.519 40.9593 24.1667 40.7553 25.7613 40.3235C27.6012 39.8147 29.3159 38.9307 30.7977 37.7273C32.0344 36.7469 33.0196 35.4858 33.6715 34.0486C34.3206 32.5653 34.6462 30.9607 34.6268 29.3418C34.6553 27.8268 34.2865 26.3308 33.557 25.0027" fill="#A57B1B"/>
<path d="M52.291 12.8576H58.2919C61.7116 12.8576 63.4694 14.5414 63.4694 17.3308C63.4825 17.9078 63.3779 18.4814 63.1619 19.0167C62.946 19.5519 62.6233 20.0376 62.2135 20.444C63.0055 20.6426 63.707 21.1034 64.2038 21.7514C64.7006 22.3994 64.9635 23.1964 64.9497 24.0128C64.9497 26.5247 63.4173 28.5346 59.5258 28.5346H52.291V12.8576ZM54.9023 15.396V19.5154H59.8277C60.1446 19.2743 60.4005 18.9623 60.5748 18.6044C60.7492 18.2465 60.8371 17.8526 60.8315 17.4545C60.8315 15.6204 59.4241 15.396 58.1184 15.396H54.9023ZM54.9023 22.0029V25.9962H59.246C61.4849 25.9962 62.3118 25.219 62.3118 24.0128C62.3118 22.4539 61.0813 22.0029 58.9973 22.0029H54.9023Z" fill="white"/>
<path d="M77.9899 25.67H70.3029L68.9522 28.5345H66.0078L74.0464 12.4805H74.3482L82.3879 28.5345H79.3488L77.9899 25.67ZM74.1482 17.4811L71.4351 23.2634H76.8624L74.1482 17.4811Z" fill="white"/>
<path d="M91.684 23.4601H87.9394V28.5346H85.3281V12.8576H91.0538C95.224 12.8576 97.2096 14.9681 97.2096 18.1588C97.2607 19.1497 97.0247 20.1342 96.5299 20.9941C96.0351 21.8541 95.3025 22.5529 94.4202 23.0067L99.0461 28.5346H95.7525L91.684 23.4601ZM87.9394 15.396V20.9216H92.8382C93.3426 20.6591 93.7645 20.262 94.0571 19.7743C94.3496 19.2866 94.5013 18.7275 94.4954 18.1588C94.4954 16.1732 93.3667 15.396 91.026 15.396H87.9394Z" fill="white"/>
<path d="M108.342 23.4601H104.599V28.5346H101.986V12.8576H107.712C111.883 12.8576 113.868 14.9681 113.868 18.1588C113.919 19.1497 113.683 20.1342 113.188 20.9941C112.693 21.8541 111.961 22.5529 111.078 23.0067L115.704 28.5346H112.411L108.342 23.4601ZM104.599 15.396V20.9216H109.498C110.002 20.6591 110.424 20.262 110.716 19.7743C111.009 19.2866 111.161 18.7275 111.155 18.1588C111.155 16.1732 110.026 15.396 107.685 15.396H104.599Z" fill="white"/>
<path d="M118.643 12.8576H121.254V28.5346H118.643V12.8576Z" fill="white"/>
<path d="M137.558 15.3959V12.8587H133.455L132.672 10.8187H130.136L131.145 12.8587H126.205V28.5345H137.558V25.9961H128.818V21.8016H137.309V19.2655H128.818V15.3959H137.558Z" fill="white"/>
<path d="M148.365 23.4601H144.621V28.5346H142.01V12.8576H147.734C151.906 12.8576 153.89 14.9681 153.89 18.1588C153.941 19.1495 153.705 20.134 153.211 20.9939C152.716 21.8539 151.984 22.5528 151.102 23.0067L155.728 28.5346H152.438L148.365 23.4601ZM144.621 15.396V20.9216H149.52C150.024 20.6591 150.446 20.262 150.739 19.7743C151.031 19.2866 151.183 18.7275 151.177 18.1588C151.177 16.1732 150.048 15.396 147.708 15.396H144.621Z" fill="white"/>
<path d="M170.017 25.9962V28.5404H158.664V12.8576H170.017V15.396H161.275V19.2644H169.767V21.8017H161.275V25.9962H170.017Z" fill="white"/>
<path d="M56.5772 1.2386C56.1952 1.19859 55.809 1.24153 55.445 1.36447C55.0811 1.48742 54.7479 1.68748 54.4684 1.95098C54.1889 2.21449 53.9695 2.53523 53.8253 2.89129C53.6811 3.24735 53.6155 3.63035 53.6329 4.01411C53.6141 4.39709 53.6785 4.7796 53.8214 5.13541C53.9643 5.49122 54.1824 5.81192 54.4609 6.07554C54.7393 6.33916 55.0715 6.53946 55.4346 6.66271C55.7977 6.78596 56.1831 6.82925 56.5645 6.78962C57.5254 6.79238 58.451 6.42839 59.1527 5.77193L59.3978 7.0718C58.5616 7.7218 57.5249 8.06 56.4662 8.02819C55.9223 8.06685 55.3762 7.99085 54.8635 7.80512C54.3508 7.61939 53.8828 7.32806 53.4898 6.95C53.0968 6.57194 52.7876 6.11556 52.5821 5.61042C52.3767 5.10528 52.2796 4.56262 52.2972 4.01758C52.2787 3.47238 52.3749 2.92938 52.5796 2.42374C52.7844 1.9181 53.093 1.46111 53.4856 1.08236C53.8782 0.703613 54.346 0.411555 54.8586 0.225106C55.3713 0.038657 55.9174 -0.0380248 56.4616 2.75951e-05C57.5203 -0.0317831 58.557 0.306414 59.3932 0.956422L59.148 2.25629C58.4512 1.60323 57.5322 1.23943 56.5772 1.2386Z" fill="white"/>
<path d="M66.2267 6.43918H62.4751L61.8125 7.83735H60.375L64.3 0H64.4481L68.3731 7.83735H66.8882L66.2267 6.43918ZM64.3486 2.44014L63.0256 5.2619H65.6739L64.3486 2.44014Z" fill="white"/>
<path d="M75.4172 5.76498C75.4172 7.01627 74.3127 8.02124 72.3872 8.02124C71.705 8.07379 71.0233 7.91277 70.4366 7.5605C69.85 7.20823 69.3875 6.68217 69.1133 6.05525L70.0385 5.08614C70.1505 5.61684 70.449 6.08978 70.88 6.41911C71.311 6.74843 71.8457 6.9123 72.3872 6.88097C73.7241 6.88097 74.1659 6.3409 74.1659 5.76498C74.1659 4.10892 69.9471 4.63627 69.9471 2.04811C69.9613 1.74921 70.0372 1.45648 70.17 1.18835C70.3029 0.920214 70.4898 0.682478 70.719 0.490101C70.9482 0.297723 71.2147 0.154867 71.5018 0.0705227C71.7889 -0.0138215 72.0904 -0.0378281 72.3872 1.3203e-05C72.8611 -0.0231892 73.3315 0.0920715 73.741 0.331727C74.1505 0.571382 74.4814 0.925065 74.6932 1.34961L73.9207 2.33029C73.8404 1.98612 73.6442 1.68004 73.365 1.46337C73.0858 1.2467 72.7406 1.13263 72.3872 1.14029C71.5904 1.14029 71.2308 1.54505 71.2308 2.04811C71.2342 3.59314 75.4172 3.0658 75.4172 5.76498Z" fill="white"/>
<path d="M77.0117 0.18396H78.2838V7.83743H77.0117V0.18396Z" fill="white"/>
<path d="M87.9782 7.95992L82.0202 2.70842V7.83733H80.748V0.0612793H80.8949L86.8495 5.2989V0.183864H88.1217V7.95992H87.9782Z" fill="white"/>
<path d="M90.0918 4.01062C90.1172 2.9411 90.5599 1.92393 91.3253 1.17649C92.0908 0.42905 93.1182 0.0106201 94.188 0.0106201C95.2578 0.0106201 96.2852 0.42905 97.0506 1.17649C97.816 1.92393 98.2588 2.9411 98.2842 4.01062C98.2588 5.08015 97.816 6.09732 97.0506 6.84476C96.2852 7.5922 95.2578 8.01063 94.188 8.01063C93.1182 8.01063 92.0908 7.5922 91.3253 6.84476C90.5599 6.09732 90.1172 5.08015 90.0918 4.01062ZM91.4159 4.01062C91.3971 4.38632 91.4549 4.76192 91.5857 5.11461C91.7165 5.46729 91.9177 5.7897 92.177 6.06226C92.4362 6.33482 92.7482 6.55183 93.0939 6.70012C93.4396 6.8484 93.8118 6.92487 94.188 6.92487C94.5642 6.92487 94.9364 6.8484 95.2821 6.70012C95.6278 6.55183 95.9398 6.33482 96.199 6.06226C96.4583 5.7897 96.6594 5.46729 96.7902 5.11461C96.9211 4.76192 96.9788 4.38632 96.96 4.01062C96.9788 3.63493 96.9211 3.25933 96.7902 2.90664C96.6594 2.55396 96.4583 2.23155 96.199 1.95899C95.9398 1.68643 95.6278 1.46942 95.2821 1.32113C94.9364 1.17285 94.5642 1.09638 94.188 1.09638C93.8118 1.09638 93.4396 1.17285 93.0939 1.32113C92.7482 1.46942 92.4362 1.68643 92.177 1.95899C91.9177 2.23155 91.7165 2.55396 91.5857 2.90664C91.4549 3.25933 91.3971 3.63493 91.4159 4.01062Z" fill="white"/>
<path d="M51.9434 35.2212V34.1642H57.898V35.2166H55.4613V40.6612H54.38V35.2212H51.9434Z" fill="white"/>
<path d="M61.8844 38.5587H60.3336V40.6623H59.25V34.1642H61.6242C63.352 34.1642 64.1684 35.0385 64.1684 36.3615C64.1897 36.7721 64.0919 37.1802 63.8868 37.5366C63.6816 37.893 63.3778 38.1825 63.012 38.3702L64.9271 40.6612H63.5717L61.8844 38.5587ZM60.3336 35.2177V37.5075H62.3609C62.5702 37.3991 62.7453 37.2346 62.8666 37.0324C62.9879 36.8303 63.0507 36.5984 63.0478 36.3626C63.0478 35.5392 62.5852 35.2177 61.6115 35.2177H60.3336Z" fill="white"/>
<path d="M65.4539 37.4174C65.4392 36.7266 65.6306 36.0471 66.0037 35.4655C66.3769 34.884 66.9148 34.4268 67.5488 34.1522C68.1829 33.8777 68.8843 33.7982 69.5637 33.924C70.2431 34.0498 70.8697 34.3752 71.3634 34.8585C71.8571 35.3419 72.1957 35.9614 72.3358 36.638C72.476 37.3146 72.4114 38.0176 72.1503 38.6573C71.8893 39.297 71.4435 39.8445 70.87 40.2298C70.2965 40.6152 69.6212 40.8209 68.9303 40.8209C68.4711 40.8554 68.0099 40.7917 67.5774 40.6338C67.1449 40.476 66.751 40.2278 66.422 39.9057C66.093 39.5836 65.8365 39.1951 65.6696 38.766C65.5026 38.3369 65.4291 37.8771 65.4539 37.4174ZM66.578 37.4174C66.5842 37.8815 66.7274 38.3335 66.9898 38.7164C67.2522 39.0993 67.6219 39.3961 68.0525 39.5694C68.4831 39.7427 68.9553 39.7848 69.4098 39.6904C69.8643 39.596 70.2807 39.3693 70.6066 39.0389C70.9326 38.7084 71.1536 38.289 71.2418 37.8332C71.3299 37.3775 71.2814 36.9059 71.1022 36.4777C70.923 36.0495 70.6212 35.6839 70.2347 35.4268C69.8483 35.1697 69.3944 35.0326 68.9303 35.0328C68.6137 35.014 68.2967 35.063 68.0006 35.1767C67.7045 35.2903 67.4361 35.4659 67.2134 35.6917C66.9907 35.9175 66.8188 36.1883 66.7092 36.4859C66.5996 36.7835 66.5549 37.1011 66.578 37.4174Z" fill="white"/>
<path d="M79.1625 40.1026C78.5125 40.5914 77.7157 40.8446 76.9028 40.8208C76.5198 40.8815 76.1279 40.8525 75.7579 40.7362C75.388 40.6199 75.05 40.4193 74.7707 40.1504C74.4913 39.8814 74.2781 39.5513 74.1478 39.1861C74.0175 38.8208 73.9736 38.4303 74.0197 38.0453V34.1642H75.1022V37.9019C75.1022 39.1613 75.6538 39.7649 76.9525 39.7649C77.705 39.7838 78.4357 39.5117 78.9925 39.0051V34.1642H80.0761V40.6612H79.0977L79.1625 40.1026Z" fill="white"/>
<path d="M81.2188 34.1642H82.4064L84.6141 38.797L86.8207 34.1642H88.0072L84.6662 40.8162H84.5632L81.2188 34.1642Z" fill="white"/>
<path d="M89.2578 34.1642H90.3403V40.6612H89.2578V34.1642Z" fill="white"/>
<path d="M96.9174 39.6134V40.6658H92.4199V34.1642H93.5024V39.6088L96.9174 39.6134Z" fill="white"/>
<path d="M102.974 39.6134V40.6658H98.4766V34.1642H99.5602V39.6088L102.974 39.6134Z" fill="white"/>
<path d="M109.24 39.6134V40.6658H104.533V34.1642H109.24V35.2166H105.617V36.824H109.136V37.8753H105.617V39.61L109.24 39.6134Z" fill="white"/>
</g>
<defs>
<clipPath id="clip0_129_13">
<rect width="170" height="49.7279" fill="white"/>
</clipPath>
</defs>
</svg>
